<svg id="visual" viewBox="0 0 1000 200" width="1000" height="200" xmlns="http://www.w3.org/2000/svg" xmlns:xlink="http://www.w3.org/1999/xlink" version="1.1"><rect x="0" y="0" width="1000" height="200" fill="#0462aa"></rect><path d="M0 63L16.7 65.8C33.3 68.7 66.7 74.3 100 77C133.3 79.7 166.7 79.3 200 80.5C233.3 81.7 266.7 84.3 300 88C333.3 91.7 366.7 96.3 400 93.8C433.3 91.3 466.7 81.7 500 78.7C533.3 75.7 566.7 79.3 600 83.3C633.3 87.3 666.7 91.7 700 95.7C733.3 99.7 766.7 103.3 800 100.3C833.3 97.3 866.7 87.7 900 83C933.3 78.3 966.7 78.7 983.3 78.8L1000 79L1000 201L983.3 201C966.7 201 933.3 201 900 201C866.7 201 833.3 201 800 201C766.7 201 733.3 201 700 201C666.7 201 633.3 201 600 201C566.7 201 533.3 201 500 201C466.7 201 433.3 201 400 201C366.7 201 333.3 201 300 201C266.7 201 233.3 201 200 201C166.7 201 133.3 201 100 201C66.7 201 33.3 201 16.7 201L0 201Z" fill="#0093ff"></path><path d="M0 122L16.7 118.2C33.3 114.3 66.7 106.7 100 104.8C133.3 103 166.7 107 200 112.3C233.3 117.7 266.7 124.3 300 125.2C333.3 126 366.7 121 400 119.5C433.3 118 466.7 120 500 118.3C533.3 116.7 566.7 111.3 600 107.5C633.3 103.7 666.7 101.3 700 104.2C733.3 107 766.7 115 800 114.2C833.3 113.3 866.7 103.7 900 103C933.3 102.3 966.7 110.7 983.3 114.8L1000 119L1000 201L983.3 201C966.7 201 933.3 201 900 201C866.7 201 833.3 201 800 201C766.7 201 733.3 201 700 201C666.7 201 633.3 201 600 201C566.7 201 533.3 201 500 201C466.7 201 433.3 201 400 201C366.7 201 333.3 201 300 201C266.7 201 233.3 201 200 201C166.7 201 133.3 201 100 201C66.7 201 33.3 201 16.7 201L0 201Z" fill="#0075ca"></path><path d="M0 131L16.7 133C33.3 135 66.7 139 100 138.8C133.3 138.7 166.7 134.3 200 132.7C233.3 131 266.7 132 300 133.7C333.3 135.3 366.7 137.7 400 138C433.3 138.3 466.7 136.7 500 134.2C533.3 131.7 566.7 128.3 600 130.8C633.3 133.3 666.7 141.7 700 143.2C733.3 144.7 766.7 139.3 800 138.7C833.3 138 866.7 142 900 143.3C933.3 144.7 966.7 143.3 983.3 142.7L1000 142L1000 201L983.3 201C966.7 201 933.3 201 900 201C866.7 201 833.3 201 800 201C766.7 201 733.3 201 700 201C666.7 201 633.3 201 600 201C566.7 201 533.3 201 500 201C466.7 201 433.3 201 400 201C366.7 201 333.3 201 300 201C266.7 201 233.3 201 200 201C166.7 201 133.3 201 100 201C66.7 201 33.3 201 16.7 201L0 201Z" fill="#005798"></path><path d="M0 168L16.7 169.8C33.3 171.7 66.7 175.3 100 176.3C133.3 177.3 166.7 175.7 200 174.8C233.3 174 266.7 174 300 171.7C333.3 169.3 366.7 164.7 400 161.2C433.3 157.7 466.7 155.3 500 154.8C533.3 154.3 566.7 155.7 600 156.5C633.3 157.3 666.7 157.7 700 159C733.3 160.3 766.7 162.7 800 166.3C833.3 170 866.7 175 900 174.2C933.3 173.3 966.7 166.7 983.3 163.3L1000 160L1000 201L983.3 201C966.7 201 933.3 201 900 201C866.7 201 833.3 201 800 201C766.7 201 733.3 201 700 201C666.7 201 633.3 201 600 201C566.7 201 533.3 201 500 201C466.7 201 433.3 201 400 201C366.7 201 333.3 201 300 201C266.7 201 233.3 201 200 201C166.7 201 133.3 201 100 201C66.7 201 33.3 201 16.7 201L0 201Z" fill="#003b68"></path></svg>