<svg id="visual" viewBox="0 0 1000 200" width="1000" height="200" xmlns="http://www.w3.org/2000/svg" xmlns:xlink="http://www.w3.org/1999/xlink" version="1.1"><rect x="0" y="0" width="1000" height="200" fill="#400f83"></rect><path d="M0 137L13.8 139.7C27.7 142.3 55.3 147.7 83.2 142.3C111 137 139 121 166.8 112.3C194.7 103.7 222.3 102.3 250 111C277.7 119.7 305.3 138.3 333.2 142.7C361 147 389 137 416.8 137.3C444.7 137.7 472.3 148.3 500 151.7C527.7 155 555.3 151 583.2 144.3C611 137.7 639 128.3 666.8 130.2C694.7 132 722.3 145 750 144.2C777.7 143.3 805.3 128.7 833.2 129.2C861 129.7 889 145.3 916.8 144C944.7 142.7 972.3 124.3 986.2 115.2L1000 106L1000 0L986.2 0C972.3 0 944.7 0 916.8 0C889 0 861 0 833.2 0C805.3 0 777.7 0 750 0C722.3 0 694.7 0 666.8 0C639 0 611 0 583.2 0C555.3 0 527.7 0 500 0C472.3 0 444.7 0 416.8 0C389 0 361 0 333.2 0C305.3 0 277.7 0 250 0C222.3 0 194.7 0 166.8 0C139 0 111 0 83.2 0C55.3 0 27.7 0 13.8 0L0 0Z" fill="#6023bc"></path><path d="M0 73L13.8 74.3C27.7 75.7 55.3 78.3 83.2 87.2C111 96 139 111 166.8 110.3C194.7 109.7 222.3 93.3 250 89.5C277.7 85.7 305.3 94.3 333.2 96.5C361 98.7 389 94.3 416.8 89.5C444.7 84.7 472.3 79.3 500 84.5C527.7 89.7 555.3 105.3 583.2 110.8C611 116.3 639 111.7 666.8 103C694.7 94.3 722.3 81.7 750 76.5C777.7 71.3 805.3 73.7 833.2 80C861 86.3 889 96.7 916.8 103C944.7 109.3 972.3 111.7 986.2 112.8L1000 114L1000 0L986.2 0C972.3 0 944.7 0 916.8 0C889 0 861 0 833.2 0C805.3 0 777.7 0 750 0C722.3 0 694.7 0 666.8 0C639 0 611 0 583.2 0C555.3 0 527.7 0 500 0C472.3 0 444.7 0 416.8 0C389 0 361 0 333.2 0C305.3 0 277.7 0 250 0C222.3 0 194.7 0 166.8 0C139 0 111 0 83.2 0C55.3 0 27.7 0 13.8 0L0 0Z" fill="#bc0079"></path><path d="M0 48L13.8 50.3C27.7 52.7 55.3 57.3 83.2 58.5C111 59.7 139 57.3 166.8 55.8C194.7 54.3 222.3 53.7 250 55.8C277.7 58 305.3 63 333.2 63.7C361 64.3 389 60.7 416.8 63.5C444.7 66.3 472.3 75.7 500 74C527.7 72.3 555.3 59.7 583.2 56C611 52.3 639 57.7 666.8 61C694.7 64.3 722.3 65.7 750 70C777.7 74.3 805.3 81.7 833.2 84.3C861 87 889 85 916.8 79.5C944.7 74 972.3 65 986.2 60.5L1000 56L1000 0L986.2 0C972.3 0 944.7 0 916.8 0C889 0 861 0 833.2 0C805.3 0 777.7 0 750 0C722.3 0 694.7 0 666.8 0C639 0 611 0 583.2 0C555.3 0 527.7 0 500 0C472.3 0 444.7 0 416.8 0C389 0 361 0 333.2 0C305.3 0 277.7 0 250 0C222.3 0 194.7 0 166.8 0C139 0 111 0 83.2 0C55.3 0 27.7 0 13.8 0L0 0Z" fill="#ca233e"></path><path d="M0 23L13.8 24.7C27.7 26.3 55.3 29.7 83.2 30.2C111 30.7 139 28.3 166.8 32.7C194.7 37 222.3 48 250 47.7C277.7 47.3 305.3 35.7 333.2 32C361 28.3 389 32.7 416.8 34.7C444.7 36.7 472.3 36.3 500 35.7C527.7 35 555.3 34 583.2 35.8C611 37.7 639 42.3 666.8 40C694.7 37.7 722.3 28.3 750 26.7C777.7 25 805.3 31 833.2 34.7C861 38.3 889 39.7 916.8 40.5C944.7 41.3 972.3 41.7 986.2 41.8L1000 42L1000 0L986.2 0C972.3 0 944.7 0 916.8 0C889 0 861 0 833.2 0C805.3 0 777.7 0 750 0C722.3 0 694.7 0 666.8 0C639 0 611 0 583.2 0C555.3 0 527.7 0 500 0C472.3 0 444.7 0 416.8 0C389 0 361 0 333.2 0C305.3 0 277.7 0 250 0C222.3 0 194.7 0 166.8 0C139 0 111 0 83.2 0C55.3 0 27.7 0 13.8 0L0 0Z" fill="#b75300"></path></svg>