<svg id="visual" viewBox="0 0 1000 200" width="1000" height="200" xmlns="http://www.w3.org/2000/svg" xmlns:xlink="http://www.w3.org/1999/xlink" version="1.1"><rect x="0" y="0" width="1000" height="200" fill="#b75300"></rect><path d="M0 122L18.5 127.5C37 133 74 144 111 145.8C148 147.7 185 140.3 222 139.3C259 138.3 296 143.7 333 144.8C370 146 407 143 444.2 135.3C481.3 127.7 518.7 115.3 555.8 110.5C593 105.7 630 108.3 667 116.7C704 125 741 139 778 139.2C815 139.3 852 125.7 889 122.2C926 118.7 963 125.3 981.5 128.7L1000 132L1000 0L981.5 0C963 0 926 0 889 0C852 0 815 0 778 0C741 0 704 0 667 0C630 0 593 0 555.8 0C518.7 0 481.3 0 444.2 0C407 0 370 0 333 0C296 0 259 0 222 0C185 0 148 0 111 0C74 0 37 0 18.5 0L0 0Z" fill="#eb6e08"></path><path d="M0 90L18.5 94.8C37 99.7 74 109.3 111 107.8C148 106.3 185 93.7 222 95C259 96.3 296 111.7 333 113.7C370 115.7 407 104.3 444.2 95.3C481.3 86.3 518.7 79.7 555.8 85C593 90.3 630 107.7 667 110C704 112.3 741 99.7 778 99.5C815 99.3 852 111.7 889 110.8C926 110 963 96 981.5 89L1000 82L1000 0L981.5 0C963 0 926 0 889 0C852 0 815 0 778 0C741 0 704 0 667 0C630 0 593 0 555.8 0C518.7 0 481.3 0 444.2 0C407 0 370 0 333 0C296 0 259 0 222 0C185 0 148 0 111 0C74 0 37 0 18.5 0L0 0Z" fill="#d23465"></path><path d="M0 77L18.5 72C37 67 74 57 111 57.3C148 57.7 185 68.3 222 69C259 69.7 296 60.3 333 62.7C370 65 407 79 444.2 81.3C481.3 83.7 518.7 74.3 555.8 68.7C593 63 630 61 667 62C704 63 741 67 778 67.8C815 68.7 852 66.3 889 64C926 61.7 963 59.3 981.5 58.2L1000 57L1000 0L981.5 0C963 0 926 0 889 0C852 0 815 0 778 0C741 0 704 0 667 0C630 0 593 0 555.8 0C518.7 0 481.3 0 444.2 0C407 0 370 0 333 0C296 0 259 0 222 0C185 0 148 0 111 0C74 0 37 0 18.5 0L0 0Z" fill="#783e86"></path><path d="M0 49L18.5 47.3C37 45.7 74 42.3 111 41.5C148 40.7 185 42.3 222 44.7C259 47 296 50 333 46C370 42 407 31 444.2 27.3C481.3 23.7 518.7 27.3 555.8 31.8C593 36.3 630 41.7 667 43C704 44.3 741 41.7 778 39.2C815 36.7 852 34.3 889 32C926 29.7 963 27.3 981.5 26.2L1000 25L1000 0L981.5 0C963 0 926 0 889 0C852 0 815 0 778 0C741 0 704 0 667 0C630 0 593 0 555.8 0C518.7 0 481.3 0 444.2 0C407 0 370 0 333 0C296 0 259 0 222 0C185 0 148 0 111 0C74 0 37 0 18.5 0L0 0Z" fill="#003b68"></path></svg>