<svg id="visual" viewBox="0 0 1000 200" width="1000" height="200" xmlns="http://www.w3.org/2000/svg" xmlns:xlink="http://www.w3.org/1999/xlink" version="1.1"><rect x="0" y="0" width="1000" height="200" fill="#b75300"></rect><path d="M0 163L23.8 162.7C47.7 162.3 95.3 161.7 143 158C190.7 154.3 238.3 147.7 286 148.3C333.7 149 381.3 157 428.8 159.3C476.3 161.7 523.7 158.3 571.2 156.2C618.7 154 666.3 153 714 150.5C761.7 148 809.3 144 857 140.8C904.7 137.7 952.3 135.3 976.2 134.2L1000 133L1000 0L976.2 0C952.3 0 904.7 0 857 0C809.3 0 761.7 0 714 0C666.3 0 618.7 0 571.2 0C523.7 0 476.3 0 428.8 0C381.3 0 333.7 0 286 0C238.3 0 190.7 0 143 0C95.3 0 47.7 0 23.8 0L0 0Z" fill="#d35f00"></path><path d="M0 88L23.8 91.2C47.7 94.3 95.3 100.7 143 108.3C190.7 116 238.3 125 286 128.5C333.7 132 381.3 130 428.8 127C476.3 124 523.7 120 571.2 119.2C618.7 118.3 666.3 120.7 714 117.7C761.7 114.7 809.3 106.3 857 99.2C904.7 92 952.3 86 976.2 83L1000 80L1000 0L976.2 0C952.3 0 904.7 0 857 0C809.3 0 761.7 0 714 0C666.3 0 618.7 0 571.2 0C523.7 0 476.3 0 428.8 0C381.3 0 333.7 0 286 0C238.3 0 190.7 0 143 0C95.3 0 47.7 0 23.8 0L0 0Z" fill="#d83750"></path><path d="M0 71L23.8 76.8C47.7 82.7 95.3 94.3 143 100.2C190.7 106 238.3 106 286 100C333.7 94 381.3 82 428.8 74.5C476.3 67 523.7 64 571.2 64.2C618.7 64.3 666.3 67.7 714 74.5C761.7 81.3 809.3 91.7 857 92.3C904.7 93 952.3 84 976.2 79.5L1000 75L1000 0L976.2 0C952.3 0 904.7 0 857 0C809.3 0 761.7 0 714 0C666.3 0 618.7 0 571.2 0C523.7 0 476.3 0 428.8 0C381.3 0 333.7 0 286 0C238.3 0 190.7 0 143 0C95.3 0 47.7 0 23.8 0L0 0Z" fill="#b63883"></path><path d="M0 49L23.8 48.5C47.7 48 95.3 47 143 51C190.7 55 238.3 64 286 67.2C333.7 70.3 381.3 67.7 428.8 62.5C476.3 57.3 523.7 49.7 571.2 47C618.7 44.3 666.3 46.7 714 49C761.7 51.3 809.3 53.7 857 53.3C904.7 53 952.3 50 976.2 48.5L1000 47L1000 0L976.2 0C952.3 0 904.7 0 857 0C809.3 0 761.7 0 714 0C666.3 0 618.7 0 571.2 0C523.7 0 476.3 0 428.8 0C381.3 0 333.7 0 286 0C238.3 0 190.7 0 143 0C95.3 0 47.7 0 23.8 0L0 0Z" fill="#744d9e"></path><path d="M0 27L23.8 28.5C47.7 30 95.3 33 143 36.2C190.7 39.3 238.3 42.7 286 39.7C333.7 36.7 381.3 27.3 428.8 22.5C476.3 17.7 523.7 17.3 571.2 21C618.7 24.7 666.3 32.3 714 35.2C761.7 38 809.3 36 857 34.2C904.7 32.3 952.3 30.7 976.2 29.8L1000 29L1000 0L976.2 0C952.3 0 904.7 0 857 0C809.3 0 761.7 0 714 0C666.3 0 618.7 0 571.2 0C523.7 0 476.3 0 428.8 0C381.3 0 333.7 0 286 0C238.3 0 190.7 0 143 0C95.3 0 47.7 0 23.8 0L0 0Z" fill="#005698"></path></svg>