<svg id="visual" viewBox="0 0 1000 200" width="1000" height="200" xmlns="http://www.w3.org/2000/svg" xmlns:xlink="http://www.w3.org/1999/xlink" version="1.1"><rect x="0" y="0" width="1000" height="200" fill="#122138"></rect><path d="M0 145L13.8 145.3C27.7 145.7 55.3 146.3 83.2 140.3C111 134.3 139 121.7 166.8 118.2C194.7 114.7 222.3 120.3 250 126.8C277.7 133.3 305.3 140.7 333.2 140.3C361 140 389 132 416.8 124.3C444.7 116.7 472.3 109.3 500 115.2C527.7 121 555.3 140 583.2 149.7C611 159.3 639 159.7 666.8 153C694.7 146.3 722.3 132.7 750 123.7C777.7 114.7 805.3 110.3 833.2 112.7C861 115 889 124 916.8 132.8C944.7 141.7 972.3 150.3 986.2 154.7L1000 159L1000 0L986.2 0C972.3 0 944.7 0 916.8 0C889 0 861 0 833.2 0C805.3 0 777.7 0 750 0C722.3 0 694.7 0 666.8 0C639 0 611 0 583.2 0C555.3 0 527.7 0 500 0C472.3 0 444.7 0 416.8 0C389 0 361 0 333.2 0C305.3 0 277.7 0 250 0C222.3 0 194.7 0 166.8 0C139 0 111 0 83.2 0C55.3 0 27.7 0 13.8 0L0 0Z" fill="#2660b7"></path><path d="M0 94L13.8 96.5C27.7 99 55.3 104 83.2 102.3C111 100.7 139 92.3 166.8 92.3C194.7 92.3 222.3 100.7 250 97.2C277.7 93.7 305.3 78.3 333.2 76C361 73.7 389 84.3 416.8 90C444.7 95.7 472.3 96.3 500 99.7C527.7 103 555.3 109 583.2 112.3C611 115.7 639 116.3 666.8 112C694.7 107.7 722.3 98.3 750 93.3C777.7 88.3 805.3 87.7 833.2 82.2C861 76.7 889 66.3 916.8 62.2C944.7 58 972.3 60 986.2 61L1000 62L1000 0L986.2 0C972.3 0 944.7 0 916.8 0C889 0 861 0 833.2 0C805.3 0 777.7 0 750 0C722.3 0 694.7 0 666.8 0C639 0 611 0 583.2 0C555.3 0 527.7 0 500 0C472.3 0 444.7 0 416.8 0C389 0 361 0 333.2 0C305.3 0 277.7 0 250 0C222.3 0 194.7 0 166.8 0C139 0 111 0 83.2 0C55.3 0 27.7 0 13.8 0L0 0Z" fill="#313ea1"></path><path d="M0 69L13.8 64.7C27.7 60.3 55.3 51.7 83.2 44.3C111 37 139 31 166.8 32.7C194.7 34.3 222.3 43.7 250 44.8C277.7 46 305.3 39 333.2 34.8C361 30.7 389 29.3 416.8 31C444.7 32.7 472.3 37.3 500 42C527.7 46.7 555.3 51.3 583.2 54C611 56.7 639 57.3 666.8 59.3C694.7 61.3 722.3 64.7 750 59.7C777.7 54.7 805.3 41.3 833.2 42.2C861 43 889 58 916.8 58.7C944.7 59.3 972.3 45.7 986.2 38.8L1000 32L1000 0L986.2 0C972.3 0 944.7 0 916.8 0C889 0 861 0 833.2 0C805.3 0 777.7 0 750 0C722.3 0 694.7 0 666.8 0C639 0 611 0 583.2 0C555.3 0 527.7 0 500 0C472.3 0 444.7 0 416.8 0C389 0 361 0 333.2 0C305.3 0 277.7 0 250 0C222.3 0 194.7 0 166.8 0C139 0 111 0 83.2 0C55.3 0 27.7 0 13.8 0L0 0Z" fill="#400f83"></path></svg>